<svg width="304" height="32" viewBox="0 0 304 32" fill="none" xmlns="http://www.w3.org/2000/svg">
<path d="M135.864 0.316767C136.033 0.116901 136.292 0 136.567 0H137.458C137.643 0 137.747 0.196325 137.634 0.331065L131.945 7.06785C131.776 7.26772 131.517 7.38462 131.242 7.38462H130.351C130.166 7.38462 130.062 7.1883 130.175 7.05355L135.864 0.316767Z" fill="white"/>
<path d="M124.105 0.820513C124.586 0.820513 124.942 1.11463 124.99 1.53749L124.995 1.63728V4.08758C124.995 4.52942 124.675 4.85496 124.214 4.89921L124.105 4.90435H120.987C120.506 4.90435 120.151 4.61037 120.102 4.18741L120.097 4.08758V1.63728C120.097 1.1956 120.418 0.86993 120.879 0.825659L120.987 0.820513H124.105Z" fill="white"/>
<path d="M164.713 6.6871C164.215 6.6871 163.805 6.34148 163.753 5.89802L163.747 5.80158L163.747 1.70605C163.747 1.24956 164.124 0.873798 164.608 0.825726L164.713 0.820531H167.419C167.917 0.820531 168.327 1.16585 168.379 1.60956L168.385 1.70605L168.386 2.86197L171.498 2.86177C171.996 2.86177 172.405 3.2071 172.458 3.6508L172.464 3.74729V5.80158C172.464 6.25775 172.087 6.63379 171.603 6.6819L171.498 6.6871H164.713Z" fill="white"/>
<path d="M299.061 26.1334C299.559 26.1334 299.968 26.4791 300.021 26.9225L300.027 27.0189L300.026 31.1145C300.026 31.571 299.65 31.9467 299.166 31.9948L299.061 32H296.355C295.856 32 295.447 31.6547 295.394 31.211L295.389 31.1145L295.388 29.9586L292.276 29.9588C291.778 29.9588 291.368 29.6134 291.316 29.1697L291.31 29.0732V27.0189C291.31 26.5628 291.687 26.1867 292.171 26.1386L292.276 26.1334H299.061Z" fill="white"/>
<path d="M264.416 6.71853C264.468 7.16199 264.878 7.50762 265.376 7.50762H272.161L272.266 7.50242C272.75 7.45431 273.126 7.07827 273.126 6.6221V4.5678L273.121 4.47131C273.068 4.02761 272.659 3.68229 272.161 3.68229L269.049 3.68248L269.048 2.52656L269.042 2.43007C268.99 1.98637 268.58 1.64104 268.082 1.64104H265.376L265.271 1.64624C264.787 1.69431 264.41 2.07007 264.41 2.52656L264.41 6.6221L264.416 6.71853Z" fill="white"/>
<path d="M97.8247 7.38462C98.3065 7.38462 98.6615 7.67874 98.7098 8.1016L98.7154 8.20139V10.6517C98.7154 11.0935 98.3948 11.4191 97.9336 11.4633L97.8247 11.4685H90.6995C90.2177 11.4685 89.8627 11.1745 89.8145 10.7515L89.8089 10.6517V8.20139C89.8089 7.75971 90.1294 7.43404 90.5907 7.38977L90.6995 7.38462H97.8247Z" fill="white"/>
<path d="M286.673 26.8722C286.625 26.4494 286.27 26.1553 285.788 26.1553H278.663L278.554 26.1604C278.093 26.2047 277.772 26.5304 277.772 26.972V29.4223L277.778 29.5222C277.826 29.9451 278.181 30.2391 278.663 30.2391H285.788L285.897 30.234C286.358 30.1897 286.679 29.8642 286.679 29.4223V26.972L286.673 26.8722Z" fill="white"/>
<path d="M26.5589 26.1553C27.0407 26.1553 27.3957 26.4494 27.444 26.8722L27.4496 26.972V29.4223C27.4496 29.8642 27.129 30.1897 26.6678 30.234L26.5589 30.2391H19.4337C18.9519 30.2391 18.5969 29.9451 18.5487 29.5222L18.5431 29.4223V26.972C18.5431 26.5304 18.8636 26.2047 19.3249 26.1604L19.4337 26.1553H26.5589Z" fill="white"/>
<path d="M244.36 3.99903C244.312 3.57617 243.957 3.28205 243.475 3.28205H240.358L240.249 3.2872C239.788 3.33147 239.467 3.65714 239.467 4.09882V6.54912L239.473 6.64895C239.521 7.07191 239.876 7.36589 240.358 7.36589H243.475L243.584 7.36075C244.045 7.3165 244.366 6.99096 244.366 6.54912V4.09882L244.36 3.99903Z" fill="white"/>
<path d="M13.1983 3.28205C13.6799 3.28205 14.0351 3.57617 14.0833 3.99903L14.0889 4.09882V6.54912C14.0889 6.99096 13.7682 7.3165 13.3071 7.36075L13.1983 7.36589H10.5255C10.0438 7.36589 9.68872 7.07191 9.64044 6.64895L9.63483 6.54912V4.09882C9.63483 3.65714 9.95556 3.33147 10.4167 3.2872L10.5255 3.28205H13.1983Z" fill="white"/>
<path d="M61.7414 3.99903C61.6931 3.57617 61.338 3.28205 60.8564 3.28205H57.7391L57.6303 3.2872C57.1692 3.33147 56.8484 3.65714 56.8484 4.09882V6.54912L56.854 6.64895C56.9023 7.07191 57.2574 7.36589 57.7391 7.36589H60.8564L60.9652 7.36075C61.4263 7.3165 61.747 6.99096 61.747 6.54912V4.09882L61.7414 3.99903Z" fill="white"/>
<path d="M202.046 12.8724C201.946 9.53468 199.509 7.36965 195.815 7.36965H187.799L187.69 7.3748C187.23 7.41911 186.909 7.74503 186.909 8.18641V10.6367L186.914 10.7364C186.962 11.1589 187.318 11.4535 187.799 11.4535H195.815L195.97 11.4564C197.077 11.4998 197.596 12.0221 197.596 13.087V17.9876L197.593 18.1295C197.546 19.145 196.976 19.6212 195.815 19.6212H187.799L187.69 19.6263C187.23 19.6706 186.909 19.9964 186.909 20.4379V22.8882L186.914 22.988C186.962 23.4106 187.318 23.705 187.799 23.705H195.815L196.049 23.7021C199.689 23.6104 202.05 21.3748 202.05 17.9876V13.087L202.046 12.8724Z" fill="white"/>
<path d="M39.4677 0C39.1928 0 38.9333 0.116901 38.7645 0.316767L33.0758 7.05355C32.962 7.1883 33.0662 7.38462 33.2516 7.38462H34.1422C34.4171 7.38462 34.6766 7.26772 34.8453 7.06785L40.5341 0.331065C40.6478 0.196325 40.5436 0 40.3583 0H39.4677Z" fill="white"/>
<path fill-rule="evenodd" clip-rule="evenodd" d="M213.633 14.7692V19.6923H211.852C210.376 19.6923 209.179 18.5903 209.179 17.2308V3.28205C209.179 2.8289 208.78 2.46154 208.288 2.46154H205.616C205.124 2.46154 204.725 2.8289 204.725 3.28205V17.2308C204.725 20.856 207.916 23.7949 211.852 23.7949H231.004C232.62 23.7949 234.102 23.2666 235.257 22.3874L236.049 23.4414C236.216 23.6628 236.489 23.7949 236.782 23.7949H242.105C244.133 23.7949 245.962 23.0152 247.26 21.7637L248.521 23.4414C248.687 23.6628 248.961 23.7949 249.253 23.7949H254.577C256.337 23.7949 257.949 23.2068 259.193 22.2322L260.101 23.4414C260.268 23.6628 260.542 23.7949 260.834 23.7949H264.363C266.131 23.7949 267.749 23.2016 268.995 22.2194L269.914 23.4414C270.08 23.6628 270.354 23.7949 270.646 23.7949H271.503C273.359 23.7949 275.05 23.1409 276.318 22.0695L277.075 23.3634C277.23 23.6292 277.531 23.7949 277.859 23.7949H284.008C285.765 23.7949 287.353 23.1255 288.486 22.0485L289.533 23.4414C289.699 23.6628 289.973 23.7949 290.265 23.7949H295.589C299.525 23.7949 302.716 20.856 302.716 17.2308V12.3077C302.716 11.8545 302.317 11.4872 301.825 11.4872H299.152C298.66 11.4872 298.261 11.8545 298.261 12.3077V17.2308C298.261 18.5903 297.065 19.6923 295.589 19.6923H289.986C290.154 19.1724 290.244 18.6215 290.244 18.0513V12.3077C290.244 11.8545 289.845 11.4872 289.353 11.4872H286.681C286.189 11.4872 285.79 11.8545 285.79 12.3077V18.0513C285.79 18.9576 284.992 19.6923 284.008 19.6923H278.663V12.3077C278.663 11.8545 278.264 11.4872 277.772 11.4872H275.066C274.574 11.4872 274.175 11.8545 274.175 12.3077V17.2308C274.175 18.5903 272.979 19.6923 271.503 19.6923H270.972C271.306 18.9322 271.49 18.1013 271.49 17.2308V12.3077C271.49 11.8545 271.091 11.4872 270.599 11.4872H267.926C267.434 11.4872 267.035 11.8545 267.035 12.3077V17.2308C267.035 18.5903 265.839 19.6923 264.363 19.6923H261.185C261.519 18.9322 261.703 18.1013 261.703 17.2308V12.3077C261.703 11.8545 261.305 11.4872 260.813 11.4872H258.14C257.648 11.4872 257.249 11.8545 257.249 12.3077V17.2308C257.249 18.5903 256.053 19.6923 254.577 19.6923H248.714C249.048 18.9322 249.232 18.1013 249.232 17.2308V12.3077C249.232 11.8545 248.833 11.4872 248.341 11.4872H245.669C245.177 11.4872 244.778 11.8545 244.778 12.3077V17.2308C244.778 18.5903 243.581 19.6923 242.105 19.6923H237.305C237.551 19.0507 237.685 18.3603 237.685 17.641C237.685 14.2424 234.694 11.4872 231.004 11.4872L226.933 11.4872C225.701 9.52517 223.398 8.20513 220.76 8.20513C216.824 8.20513 213.633 11.144 213.633 14.7692ZM220.76 12.3077C219.284 12.3077 218.087 13.4098 218.087 14.7692V19.6923H223.432V14.7692C223.432 13.4098 222.236 12.3077 220.76 12.3077ZM227.886 19.6923L227.886 15.5898H231.004C232.234 15.5898 233.231 16.5081 233.231 17.641C233.231 18.7739 232.234 19.6923 231.004 19.6923H227.886Z" fill="white"/>
<path fill-rule="evenodd" clip-rule="evenodd" d="M129.896 17.2308C129.896 18.1013 129.712 18.9322 129.378 19.6923H142.364C144.913 19.6923 146.817 17.938 146.817 15.5898V14.7692C146.817 12.421 144.913 10.6667 142.364 10.6667H132.121C131.32 10.6667 131.165 10.005 131.676 9.4359L139.177 0.611006C139.524 0.224068 140.041 0 140.586 0H144.007C144.696 0 145.073 0.738462 144.634 1.22707L140.137 6.56411H142.364C147.471 6.56411 151.27 10.0641 151.27 14.7692V15.5898C151.27 17.1086 150.874 18.5018 150.166 19.6923H154.805C156.281 19.6923 157.477 18.5903 157.477 17.2308V12.3077C157.477 11.8545 157.876 11.4872 158.368 11.4872H161.04C161.532 11.4872 161.931 11.8545 161.931 12.3077V17.2308C161.931 18.1013 161.747 18.9322 161.413 19.6923H164.591C166.067 19.6923 167.263 18.5903 167.263 17.2308V12.3077C167.263 11.8545 167.662 11.4872 168.154 11.4872H170.827C171.319 11.4872 171.717 11.8545 171.717 12.3077V17.2308C171.717 18.1013 171.533 18.9322 171.199 19.6923H171.73C173.206 19.6923 174.403 18.5903 174.403 17.2308V12.3077C174.403 11.8545 174.802 11.4872 175.294 11.4872H177.966C178.458 11.4872 178.857 11.8545 178.857 12.3077V17.2308C178.857 20.856 175.666 23.7949 171.73 23.7949H170.874C170.582 23.7949 170.308 23.6628 170.141 23.4414L169.223 22.2194C167.977 23.2016 166.359 23.7949 164.591 23.7949H161.062C160.769 23.7949 160.496 23.6628 160.329 23.4414L159.42 22.2322C158.177 23.2068 156.565 23.7949 154.805 23.7949H149.481C149.189 23.7949 148.915 23.6628 148.749 23.4414L147.809 22.1914C146.327 23.2079 144.455 23.7949 142.364 23.7949H109.394C109.102 23.7949 108.828 23.6628 108.662 23.4414L107.753 22.2321C106.509 23.2068 104.898 23.7949 103.137 23.7949H85.3549C81.419 23.7949 78.2283 20.856 78.2283 17.2308V12.3077C78.2283 11.8545 78.6271 11.4872 79.1191 11.4872H81.7916C82.2836 11.4872 82.6824 11.8545 82.6824 12.3077V17.2308C82.6824 18.5903 83.8789 19.6923 85.3549 19.6923H103.137C104.613 19.6923 105.809 18.5903 105.809 17.2308V12.3077C105.809 11.8545 106.208 11.4872 106.7 11.4872H109.373C109.865 11.4872 110.263 11.8545 110.263 12.3077V17.2308C110.263 18.1013 110.079 18.9322 109.745 19.6923H116.161C115.827 18.9322 115.643 18.1013 115.643 17.2308V14.7692C115.643 11.144 118.833 8.20513 122.769 8.20513C126.705 8.20513 129.896 11.144 129.896 14.7692V17.2308ZM125.442 14.7692V17.2308C125.442 18.5903 124.245 19.6923 122.769 19.6923C121.293 19.6923 120.097 18.5903 120.097 17.2308V14.7692C120.097 13.4098 121.293 12.3077 122.769 12.3077C124.245 12.3077 125.442 13.4098 125.442 14.7692Z" fill="white"/>
<path d="M54.1705 15.5898C54.1705 17.1086 53.7745 18.5018 53.0665 19.6923H60.3775C61.8534 19.6923 63.0499 18.5903 63.0499 17.2308V12.3077C63.0499 11.8545 63.4488 11.4872 63.9407 11.4872H66.6132C67.1052 11.4872 67.504 11.8545 67.504 12.3077V17.2308C67.504 20.856 64.3134 23.7949 60.3775 23.7949H54.163C53.8707 23.7949 53.597 23.6628 53.4306 23.4414L51.8112 21.2869C50.2134 22.8519 47.9148 23.7949 45.2639 23.7949H29.8905L28.5249 22.1883C27.2741 23.1891 25.6407 23.7949 23.8537 23.7949H15.8577C15.5653 23.7949 15.2916 23.6628 15.1252 23.4414L14.147 22.1399V22.1539C14.147 26.859 10.3476 30.359 5.2405 30.359H4.33051C3.7827 30.359 3.26534 30.1269 2.92765 29.7296L1.02168 27.4872C0.510971 26.9181 0.665424 26.2564 1.46701 26.2564H5.2405C7.78946 26.2564 9.69376 24.5021 9.69376 22.1539L9.6929 12.3077C9.6929 11.8545 10.0917 11.4872 10.5837 11.4872H13.2562C13.7482 11.4872 14.147 11.8545 14.147 12.3077V19.6923H23.8537C25.3297 19.6923 26.5262 18.5903 26.5262 17.2308V12.3077C26.5262 11.8545 26.925 11.4872 27.417 11.4872H30.0895C30.5815 11.4872 30.9803 11.8545 30.9803 12.3077V17.2308C30.9803 18.1013 30.7964 18.9322 30.4623 19.6923H45.2639C47.8129 19.6923 49.7172 17.938 49.7172 15.5898V14.7692C49.7172 12.421 47.8129 10.6667 45.2639 10.6667H35.0214C34.2199 10.6667 34.0654 10.005 34.5761 9.4359L42.0771 0.611006C42.4244 0.224068 42.9412 0 43.4861 0H46.9077C47.5961 0 47.9732 0.738462 47.5346 1.22707L43.0373 6.56411H45.2639C50.3711 6.56411 54.1705 10.0641 54.1705 14.7692V15.5898Z" fill="white"/>
<path d="M70.2108 3.28205C70.2108 2.8289 70.6096 2.46154 71.1016 2.46154H73.7741C74.266 2.46154 74.6649 2.8289 74.6649 3.28205V22.9744C74.6649 23.4275 74.266 23.7949 73.7741 23.7949H71.1016C70.6096 23.7949 70.2108 23.4275 70.2108 22.9744V3.28205Z" fill="white"/>
</svg>
